# xmcd
#
# Track frame offsets: 
#        150
#        20135
#        35242
#        53382
#        66166
#        78116
#        92843
#        109923
#        129352
#        144481
#
# Disc length: 2519 seconds
#
# Revision: 0
# Processed by: cddbd v1.5.2PL0 Copyright (c) Steve Scherf et al.
# Submitted via: ExactAudioCopyFreeDBPlugin 1.0
#
DISCID=8309d50a
DTITLE=Junior Raimey - Poor Man's Paradise
DYEAR=2009
DGENRE=Country
TTITLE0=Don"t Call Me Sober
TTITLE1=Giddy-Up-Girl
TTITLE2=I've Been Drinkin'
TTITLE3=Looking Back Now
TTITLE4=Outlaw
TTITLE5=Poor Man's Paradise
TTITLE6=Redneck Chicks
TTITLE7=Stones To The Bone
TTITLE8=Turnin' Wrenches
TTITLE9=Whiskey Till We Heave
EXTD=
EXTT0=
EXTT1=
EXTT2=
EXTT3=
EXTT4=
EXTT5=
EXTT6=
EXTT7=
EXTT8=
EXTT9=
PLAYORDER=
